<svg xmlns="http://www.w3.org/2000/svg" xmlns:xlink="http://www.w3.org/1999/xlink" contentStyleType="text/css" data-diagram-type="CLASS" height="976px" preserveAspectRatio="none" style="width:713px;height:976px;background:#FFFFFF;" version="1.1" viewBox="0 0 713 976" width="713px" zoomAndPan="magnify"><?plantuml 1.2026.4beta2?><defs/><g><!--class Portal--><g class="entity" data-qualified-name="Portal" data-source-line="5" id="ent0002"><rect fill="#F1F1F1" height="92.8906" rx="2.5" ry="2.5" style="stroke:#181818;stroke-width:0.5;" width="158.2207" x="268.28" y="868.85"/><ellipse cx="322.7795" cy="884.85" fill="#ADD1B2" rx="11" ry="11" style="stroke:#181818;stroke-width:1;"/><path d="M325.7483,890.4906 Q325.1701,890.7875 324.5295,890.9281 Q323.8889,891.0844 323.1858,891.0844 Q320.6858,891.0844 319.3576,889.4438 Q318.0451,887.7875 318.0451,884.6625 Q318.0451,881.5375 319.3576,879.8813 Q320.6858,878.225 323.1858,878.225 Q323.8889,878.225 324.5295,878.3813 Q325.1858,878.5375 325.7483,878.8344 L325.7483,881.5531 Q325.1233,880.975 324.5295,880.7094 Q323.9358,880.4281 323.3108,880.4281 Q321.967,880.4281 321.2795,881.5063 Q320.592,882.5688 320.592,884.6625 Q320.592,886.7563 321.2795,887.8344 Q321.967,888.8969 323.3108,888.8969 Q323.9358,888.8969 324.5295,888.6313 Q325.1233,888.35 325.7483,887.7719 L325.7483,890.4906 Z " fill="#000000"/><text fill="#000000" font-family="sans-serif" font-size="14" lengthAdjust="spacing" textLength="40.7217" x="343.2795" y="889.6967">Portal</text><line style="stroke:#181818;stroke-width:0.5;" x1="269.28" x2="425.5007" y1="900.85" y2="900.85"/><text fill="#000000" font-family="sans-serif" font-size="14" lengthAdjust="spacing" textLength="129.001" x="274.28" y="938.142">+destination_path</text><text fill="#000000" font-family="sans-serif" font-size="14" lengthAdjust="spacing" textLength="146.2207" x="274.28" y="954.4389">+spawn_point_name</text><line style="stroke:#181818;stroke-width:1;stroke-dasharray:1,2;" x1="269.28" x2="311.7375" y1="916.9984" y2="916.9984"/><text fill="#000000" font-family="sans-serif" font-size="14" lengthAdjust="spacing" textLength="71.3057" x="311.7375" y="921.3451">Properties</text><line style="stroke:#181818;stroke-width:1;stroke-dasharray:1,2;" x1="383.0432" x2="425.5007" y1="916.9984" y2="916.9984"/></g><!--class Area2D--><g class="entity" data-qualified-name="Area2D" data-source-line="10" id="ent0003"><rect fill="#F1F1F1" height="48" rx="2.5" ry="2.5" style="stroke:#181818;stroke-width:0.5;" width="84.2129" x="42.97" y="891.29"/><ellipse cx="57.97" cy="907.29" fill="#ADD1B2" rx="11" ry="11" style="stroke:#181818;stroke-width:1;"/><path d="M60.9388,912.9306 Q60.3606,913.2275 59.72,913.3681 Q59.0794,913.5244 58.3763,913.5244 Q55.8763,913.5244 54.5481,911.8838 Q53.2356,910.2275 53.2356,907.1025 Q53.2356,903.9775 54.5481,902.3213 Q55.8763,900.665 58.3763,900.665 Q59.0794,900.665 59.72,900.8213 Q60.3763,900.9775 60.9388,901.2744 L60.9388,903.9931 Q60.3138,903.415 59.72,903.1494 Q59.1263,902.8681 58.5013,902.8681 Q57.1575,902.8681 56.47,903.9463 Q55.7825,905.0088 55.7825,907.1025 Q55.7825,909.1963 56.47,910.2744 Q57.1575,911.3369 58.5013,911.3369 Q59.1263,911.3369 59.72,911.0713 Q60.3138,910.79 60.9388,910.2119 L60.9388,912.9306 Z " fill="#000000"/><text fill="#000000" font-family="sans-serif" font-size="14" lengthAdjust="spacing" textLength="52.2129" x="71.97" y="912.1367">Area2D</text><line style="stroke:#181818;stroke-width:0.5;" x1="43.97" x2="126.1829" y1="923.29" y2="923.29"/><line style="stroke:#181818;stroke-width:0.5;" x1="43.97" x2="126.1829" y1="931.29" y2="931.29"/></g><!--class Player--><g class="entity" data-qualified-name="Player" data-source-line="12" id="ent0005"><rect fill="#F1F1F1" height="292.4531" rx="2.5" ry="2.5" style="stroke:#181818;stroke-width:0.5;" width="248.4893" x="223.15" y="247.07"/><ellipse cx="321.3619" cy="263.07" fill="#ADD1B2" rx="11" ry="11" style="stroke:#181818;stroke-width:1;"/><path d="M324.3307,268.7106 Q323.7525,269.0075 323.1119,269.1481 Q322.4713,269.3044 321.7682,269.3044 Q319.2682,269.3044 317.94,267.6638 Q316.6275,266.0075 316.6275,262.8825 Q316.6275,259.7575 317.94,258.1013 Q319.2682,256.445 321.7682,256.445 Q322.4713,256.445 323.1119,256.6013 Q323.7682,256.7575 324.3307,257.0544 L324.3307,259.7731 Q323.7057,259.195 323.1119,258.9294 Q322.5182,258.6481 321.8932,258.6481 Q320.5494,258.6481 319.8619,259.7263 Q319.1744,260.7888 319.1744,262.8825 Q319.1744,264.9763 319.8619,266.0544 Q320.5494,267.1169 321.8932,267.1169 Q322.5182,267.1169 323.1119,266.8513 Q323.7057,266.57 324.3307,265.9919 L324.3307,268.7106 Z " fill="#000000"/><text fill="#000000" font-family="sans-serif" font-size="14" lengthAdjust="spacing" textLength="43.5654" x="341.8619" y="267.9167">Player</text><line style="stroke:#181818;stroke-width:0.5;" x1="224.15" x2="470.6393" y1="279.07" y2="279.07"/><text fill="#000000" font-family="sans-serif" font-size="14" lengthAdjust="spacing" textLength="91.5264" x="229.15" y="316.362">+max_speed</text><text fill="#000000" font-family="sans-serif" font-size="14" lengthAdjust="spacing" textLength="97.9727" x="229.15" y="332.6589">+acceleration</text><text fill="#000000" font-family="sans-serif" font-size="14" lengthAdjust="spacing" textLength="93.5498" x="229.15" y="348.9557">+max_health</text><text fill="#000000" font-family="sans-serif" font-size="14" lengthAdjust="spacing" textLength="114.1055" x="229.15" y="365.2526">+current_health</text><text fill="#000000" font-family="sans-serif" font-size="14" lengthAdjust="spacing" textLength="68.9131" x="229.15" y="381.5495">+damage</text><text fill="#000000" font-family="sans-serif" font-size="14" lengthAdjust="spacing" textLength="129.165" x="229.15" y="397.8464">+attack_cooldown</text><text fill="#000000" font-family="sans-serif" font-size="14" lengthAdjust="spacing" textLength="181.2822" x="229.15" y="414.1432">+attack_cooldown_debuff</text><text fill="#000000" font-family="sans-serif" font-size="14" lengthAdjust="spacing" textLength="159.332" x="229.15" y="430.4401">+reichweite_FightArea</text><line style="stroke:#181818;stroke-width:1;stroke-dasharray:1,2;" x1="224.15" x2="311.7418" y1="295.2184" y2="295.2184"/><text fill="#000000" font-family="sans-serif" font-size="14" lengthAdjust="spacing" textLength="71.3057" x="311.7418" y="299.5651">Properties</text><line style="stroke:#181818;stroke-width:1;stroke-dasharray:1,2;" x1="383.0475" x2="470.6393" y1="295.2184" y2="295.2184"/><text fill="#000000" font-family="sans-serif" font-size="14" lengthAdjust="spacing" textLength="57.6338" x="229.15" y="467.0339">+anim()</text><text fill="#000000" font-family="sans-serif" font-size="14" lengthAdjust="spacing" textLength="236.4893" x="229.15" y="483.3307">+update_attack_area_to_mouse()</text><text fill="#000000" font-family="sans-serif" font-size="14" lengthAdjust="spacing" textLength="66.5957" x="229.15" y="499.6276">+attack()</text><text fill="#000000" font-family="sans-serif" font-size="14" lengthAdjust="spacing" textLength="117.626" x="229.15" y="515.9245">+take_damage()</text><text fill="#000000" font-family="sans-serif" font-size="14" lengthAdjust="spacing" textLength="44.0439" x="229.15" y="532.2214">+die()</text><line style="stroke:#181818;stroke-width:1;stroke-dasharray:1,2;" x1="224.15" x2="317.4942" y1="445.8903" y2="445.8903"/><text fill="#000000" font-family="sans-serif" font-size="14" lengthAdjust="spacing" textLength="59.8008" x="317.4942" y="450.237">Methods</text><line style="stroke:#181818;stroke-width:1;stroke-dasharray:1,2;" x1="377.295" x2="470.6393" y1="445.8903" y2="445.8903"/></g><!--class CharacterBody2D--><g class="entity" data-qualified-name="CharacterBody2D" data-source-line="29" id="ent0006"><rect fill="#F1F1F1" height="48" rx="2.5" ry="2.5" style="stroke:#181818;stroke-width:0.5;" width="156.1475" x="7" y="525.29"/><ellipse cx="22" cy="541.29" fill="#ADD1B2" rx="11" ry="11" style="stroke:#181818;stroke-width:1;"/><path d="M24.9688,546.9306 Q24.3906,547.2275 23.75,547.3681 Q23.1094,547.5244 22.4063,547.5244 Q19.9063,547.5244 18.5781,545.8838 Q17.2656,544.2275 17.2656,541.1025 Q17.2656,537.9775 18.5781,536.3213 Q19.9063,534.665 22.4063,534.665 Q23.1094,534.665 23.75,534.8213 Q24.4063,534.9775 24.9688,535.2744 L24.9688,537.9931 Q24.3438,537.415 23.75,537.1494 Q23.1563,536.8681 22.5313,536.8681 Q21.1875,536.8681 20.5,537.9463 Q19.8125,539.0088 19.8125,541.1025 Q19.8125,543.1963 20.5,544.2744 Q21.1875,545.3369 22.5313,545.3369 Q23.1563,545.3369 23.75,545.0713 Q24.3438,544.79 24.9688,544.2119 L24.9688,546.9306 Z " fill="#000000"/><text fill="#000000" font-family="sans-serif" font-size="14" lengthAdjust="spacing" textLength="124.1475" x="36" y="546.1367">CharacterBody2D</text><line style="stroke:#181818;stroke-width:0.5;" x1="8" x2="162.1475" y1="557.29" y2="557.29"/><line style="stroke:#181818;stroke-width:0.5;" x1="8" x2="162.1475" y1="565.29" y2="565.29"/></g><!--class Snap_dragon--><g class="entity" data-qualified-name="Snap_dragon" data-source-line="31" id="ent0008"><rect fill="#F1F1F1" height="259.8594" rx="2.5" ry="2.5" style="stroke:#181818;stroke-width:0.5;" width="167.0117" x="531.64" y="574.36"/><ellipse cx="566.0977" cy="590.36" fill="#ADD1B2" rx="11" ry="11" style="stroke:#181818;stroke-width:1;"/><path d="M569.0664,596.0006 Q568.4883,596.2975 567.8477,596.4381 Q567.207,596.5944 566.5039,596.5944 Q564.0039,596.5944 562.6758,594.9538 Q561.3633,593.2975 561.3633,590.1725 Q561.3633,587.0475 562.6758,585.3913 Q564.0039,583.735 566.5039,583.735 Q567.207,583.735 567.8477,583.8913 Q568.5039,584.0475 569.0664,584.3444 L569.0664,587.0631 Q568.4414,586.485 567.8477,586.2194 Q567.2539,585.9381 566.6289,585.9381 Q565.2852,585.9381 564.5977,587.0163 Q563.9102,588.0788 563.9102,590.1725 Q563.9102,592.2663 564.5977,593.3444 Q565.2852,594.4069 566.6289,594.4069 Q567.2539,594.4069 567.8477,594.1413 Q568.4414,593.86 569.0664,593.2819 L569.0664,596.0006 Z " fill="#000000"/><text fill="#000000" font-family="sans-serif" font-size="14" lengthAdjust="spacing" textLength="91.7725" x="584.4216" y="595.2067">Snap_dragon</text><line style="stroke:#181818;stroke-width:0.5;" x1="532.64" x2="697.6517" y1="606.36" y2="606.36"/><text fill="#000000" font-family="sans-serif" font-size="14" lengthAdjust="spacing" textLength="72.2012" x="537.64" y="643.652">+in_range</text><text fill="#000000" font-family="sans-serif" font-size="14" lengthAdjust="spacing" textLength="82.0381" x="537.64" y="659.9489">+player_ref</text><text fill="#000000" font-family="sans-serif" font-size="14" lengthAdjust="spacing" textLength="28.9023" x="537.64" y="676.2457">+dx</text><text fill="#000000" font-family="sans-serif" font-size="14" lengthAdjust="spacing" textLength="28.9023" x="537.64" y="692.5426">+dy</text><text fill="#000000" font-family="sans-serif" font-size="14" lengthAdjust="spacing" textLength="155.0117" x="537.64" y="708.8395">+direction_knockback</text><text fill="#000000" font-family="sans-serif" font-size="14" lengthAdjust="spacing" textLength="152.626" x="537.64" y="725.1364">+knockback_strenght</text><text fill="#000000" font-family="sans-serif" font-size="14" lengthAdjust="spacing" textLength="82.6328" x="537.64" y="741.4332">+base_stun</text><text fill="#000000" font-family="sans-serif" font-size="14" lengthAdjust="spacing" textLength="80.8896" x="537.64" y="757.7301">+stun_time</text><line style="stroke:#181818;stroke-width:1;stroke-dasharray:1,2;" x1="532.64" x2="579.493" y1="622.5084" y2="622.5084"/><text fill="#000000" font-family="sans-serif" font-size="14" lengthAdjust="spacing" textLength="71.3057" x="579.493" y="626.8551">Properties</text><line style="stroke:#181818;stroke-width:1;stroke-dasharray:1,2;" x1="650.7987" x2="697.6517" y1="622.5084" y2="622.5084"/><text fill="#000000" font-family="sans-serif" font-size="14" lengthAdjust="spacing" textLength="66.5957" x="537.64" y="794.3239">+attack()</text><text fill="#000000" font-family="sans-serif" font-size="14" lengthAdjust="spacing" textLength="117.626" x="537.64" y="810.6207">+take_damage()</text><text fill="#000000" font-family="sans-serif" font-size="14" lengthAdjust="spacing" textLength="44.0439" x="537.64" y="826.9176">+die()</text><line style="stroke:#181818;stroke-width:1;stroke-dasharray:1,2;" x1="532.64" x2="585.2455" y1="773.1803" y2="773.1803"/><text fill="#000000" font-family="sans-serif" font-size="14" lengthAdjust="spacing" textLength="59.8008" x="585.2455" y="777.527">Methods</text><line style="stroke:#181818;stroke-width:1;stroke-dasharray:1,2;" x1="645.0463" x2="697.6517" y1="773.1803" y2="773.1803"/></g><!--class Enemy--><g class="entity" data-qualified-name="Enemy" data-source-line="46" id="ent0009"><rect fill="#F1F1F1" height="259.8594" rx="2.5" ry="2.5" style="stroke:#181818;stroke-width:0.5;" width="174.2168" x="260.28" y="574.36"/><ellipse cx="319.011" cy="590.36" fill="#ADD1B2" rx="11" ry="11" style="stroke:#181818;stroke-width:1;"/><path d="M321.9797,596.0006 Q321.4016,596.2975 320.761,596.4381 Q320.1203,596.5944 319.4172,596.5944 Q316.9172,596.5944 315.5891,594.9538 Q314.2766,593.2975 314.2766,590.1725 Q314.2766,587.0475 315.5891,585.3913 Q316.9172,583.735 319.4172,583.735 Q320.1203,583.735 320.761,583.8913 Q321.4172,584.0475 321.9797,584.3444 L321.9797,587.0631 Q321.3547,586.485 320.761,586.2194 Q320.1672,585.9381 319.5422,585.9381 Q318.1985,585.9381 317.511,587.0163 Q316.8235,588.0788 316.8235,590.1725 Q316.8235,592.2663 317.511,593.3444 Q318.1985,594.4069 319.5422,594.4069 Q320.1672,594.4069 320.761,594.1413 Q321.3547,593.86 321.9797,593.2819 L321.9797,596.0006 Z " fill="#000000"/><text fill="#000000" font-family="sans-serif" font-size="14" lengthAdjust="spacing" textLength="48.2549" x="339.511" y="595.2067">Enemy</text><line style="stroke:#181818;stroke-width:0.5;" x1="261.28" x2="433.4968" y1="606.36" y2="606.36"/><text fill="#000000" font-family="sans-serif" font-size="14" lengthAdjust="spacing" textLength="93.5498" x="266.28" y="643.652">+max_health</text><text fill="#000000" font-family="sans-serif" font-size="14" lengthAdjust="spacing" textLength="114.1055" x="266.28" y="659.9489">+current_health</text><text fill="#000000" font-family="sans-serif" font-size="14" lengthAdjust="spacing" textLength="58.9326" x="266.28" y="676.2457">+weight</text><text fill="#000000" font-family="sans-serif" font-size="14" lengthAdjust="spacing" textLength="162.2168" x="266.28" y="692.5426">+knockback_stop_time</text><text fill="#000000" font-family="sans-serif" font-size="14" lengthAdjust="spacing" textLength="68.9131" x="266.28" y="708.8395">+damage</text><text fill="#000000" font-family="sans-serif" font-size="14" lengthAdjust="spacing" textLength="105.2529" x="266.28" y="725.1364">+current_state</text><text fill="#000000" font-family="sans-serif" font-size="14" lengthAdjust="spacing" textLength="57.5313" x="266.28" y="741.4332">+SPEED</text><text fill="#000000" font-family="sans-serif" font-size="14" lengthAdjust="spacing" textLength="119.8271" x="266.28" y="757.7301">+ACCELERATION</text><line style="stroke:#181818;stroke-width:1;stroke-dasharray:1,2;" x1="261.28" x2="311.7356" y1="622.5084" y2="622.5084"/><text fill="#000000" font-family="sans-serif" font-size="14" lengthAdjust="spacing" textLength="71.3057" x="311.7356" y="626.8551">Properties</text><line style="stroke:#181818;stroke-width:1;stroke-dasharray:1,2;" x1="383.0412" x2="433.4968" y1="622.5084" y2="622.5084"/><text fill="#000000" font-family="sans-serif" font-size="14" lengthAdjust="spacing" textLength="66.5957" x="266.28" y="794.3239">+attack()</text><text fill="#000000" font-family="sans-serif" font-size="14" lengthAdjust="spacing" textLength="117.626" x="266.28" y="810.6207">+take_damage()</text><text fill="#000000" font-family="sans-serif" font-size="14" lengthAdjust="spacing" textLength="44.0439" x="266.28" y="826.9176">+die()</text><line style="stroke:#181818;stroke-width:1;stroke-dasharray:1,2;" x1="261.28" x2="317.488" y1="773.1803" y2="773.1803"/><text fill="#000000" font-family="sans-serif" font-size="14" lengthAdjust="spacing" textLength="59.8008" x="317.488" y="777.527">Methods</text><line style="stroke:#181818;stroke-width:1;stroke-dasharray:1,2;" x1="377.2888" x2="433.4968" y1="773.1803" y2="773.1803"/></g><!--class Player_data--><g class="entity" data-qualified-name="Player_data" data-source-line="48" id="ent0011"><rect fill="#F1F1F1" height="92.8906" rx="2.5" ry="2.5" style="stroke:#181818;stroke-width:0.5;" width="128.8809" x="282.95" y="118.85"/><ellipse cx="304.6016" cy="134.85" fill="#ADD1B2" rx="11" ry="11" style="stroke:#181818;stroke-width:1;"/><path d="M307.5703,140.4906 Q306.9922,140.7875 306.3516,140.9281 Q305.7109,141.0844 305.0078,141.0844 Q302.5078,141.0844 301.1797,139.4438 Q299.8672,137.7875 299.8672,134.6625 Q299.8672,131.5375 301.1797,129.8813 Q302.5078,128.225 305.0078,128.225 Q305.7109,128.225 306.3516,128.3813 Q307.0078,128.5375 307.5703,128.8344 L307.5703,131.5531 Q306.9453,130.975 306.3516,130.7094 Q305.7578,130.4281 305.1328,130.4281 Q303.7891,130.4281 303.1016,131.5063 Q302.4141,132.5688 302.4141,134.6625 Q302.4141,136.7563 303.1016,137.8344 Q303.7891,138.8969 305.1328,138.8969 Q305.7578,138.8969 306.3516,138.6313 Q306.9453,138.35 307.5703,137.7719 L307.5703,140.4906 Z " fill="#000000"/><text fill="#000000" font-family="sans-serif" font-size="14" lengthAdjust="spacing" textLength="82.0996" x="320.0797" y="139.6967">Player_data</text><line style="stroke:#181818;stroke-width:0.5;" x1="283.95" x2="410.8309" y1="150.85" y2="150.85"/><text fill="#000000" font-family="sans-serif" font-size="14" lengthAdjust="spacing" textLength="99.5176" x="288.95" y="188.142">+spawn_point</text><text fill="#000000" font-family="sans-serif" font-size="14" lengthAdjust="spacing" textLength="116.8809" x="288.95" y="204.4389">+global_position</text><line style="stroke:#181818;stroke-width:1;stroke-dasharray:1,2;" x1="283.95" x2="311.7376" y1="166.9984" y2="166.9984"/><text fill="#000000" font-family="sans-serif" font-size="14" lengthAdjust="spacing" textLength="71.3057" x="311.7376" y="171.3451">Properties</text><line style="stroke:#181818;stroke-width:1;stroke-dasharray:1,2;" x1="383.0433" x2="410.8309" y1="166.9984" y2="166.9984"/></g><!--class Node--><g class="entity" data-qualified-name="Node" data-source-line="53" id="ent0012"><rect fill="#F1F1F1" height="48" rx="2.5" ry="2.5" style="stroke:#181818;stroke-width:0.5;" width="68.5381" x="50.8" y="141.29"/><ellipse cx="65.8" cy="157.29" fill="#ADD1B2" rx="11" ry="11" style="stroke:#181818;stroke-width:1;"/><path d="M68.7688,162.9306 Q68.1906,163.2275 67.55,163.3681 Q66.9094,163.5244 66.2063,163.5244 Q63.7063,163.5244 62.3781,161.8837 Q61.0656,160.2275 61.0656,157.1025 Q61.0656,153.9775 62.3781,152.3212 Q63.7063,150.665 66.2063,150.665 Q66.9094,150.665 67.55,150.8212 Q68.2063,150.9775 68.7688,151.2744 L68.7688,153.9931 Q68.1438,153.415 67.55,153.1494 Q66.9563,152.8681 66.3313,152.8681 Q64.9875,152.8681 64.3,153.9462 Q63.6125,155.0087 63.6125,157.1025 Q63.6125,159.1962 64.3,160.2744 Q64.9875,161.3369 66.3313,161.3369 Q66.9563,161.3369 67.55,161.0712 Q68.1438,160.79 68.7688,160.2119 L68.7688,162.9306 Z " fill="#000000"/><text fill="#000000" font-family="sans-serif" font-size="14" lengthAdjust="spacing" textLength="36.5381" x="79.8" y="162.1367">Node</text><line style="stroke:#181818;stroke-width:0.5;" x1="51.8" x2="118.3381" y1="173.29" y2="173.29"/><line style="stroke:#181818;stroke-width:0.5;" x1="51.8" x2="118.3381" y1="181.29" y2="181.29"/></g><!--class Main--><g class="entity" data-qualified-name="Main" data-source-line="55" id="ent0014"><rect fill="#F1F1F1" height="76.5938" rx="2.5" ry="2.5" style="stroke:#181818;stroke-width:0.5;" width="79.3057" x="307.74" y="7"/><ellipse cx="328.9881" cy="23" fill="#ADD1B2" rx="11" ry="11" style="stroke:#181818;stroke-width:1;"/><path d="M331.9569,28.6406 Q331.3788,28.9375 330.7381,29.0781 Q330.0975,29.2344 329.3944,29.2344 Q326.8944,29.2344 325.5663,27.5938 Q324.2538,25.9375 324.2538,22.8125 Q324.2538,19.6875 325.5663,18.0313 Q326.8944,16.375 329.3944,16.375 Q330.0975,16.375 330.7381,16.5313 Q331.3944,16.6875 331.9569,16.9844 L331.9569,19.7031 Q331.3319,19.125 330.7381,18.8594 Q330.1444,18.5781 329.5194,18.5781 Q328.1756,18.5781 327.4881,19.6563 Q326.8006,20.7188 326.8006,22.8125 Q326.8006,24.9063 327.4881,25.9844 Q328.1756,27.0469 329.5194,27.0469 Q330.1444,27.0469 330.7381,26.7813 Q331.3319,26.5 331.9569,25.9219 L331.9569,28.6406 Z " fill="#000000"/><text fill="#000000" font-family="sans-serif" font-size="14" lengthAdjust="spacing" textLength="33.4209" x="344.3766" y="27.8467">Main</text><line style="stroke:#181818;stroke-width:0.5;" x1="308.74" x2="386.0457" y1="39" y2="39"/><text fill="#000000" font-family="sans-serif" font-size="14" lengthAdjust="spacing" textLength="62.1797" x="313.74" y="76.292">+marker</text><line style="stroke:#181818;stroke-width:1;stroke-dasharray:1,2;" x1="308.74" x2="311.74" y1="55.1484" y2="55.1484"/><text fill="#000000" font-family="sans-serif" font-size="14" lengthAdjust="spacing" textLength="71.3057" x="311.74" y="59.4951">Properties</text><line style="stroke:#181818;stroke-width:1;stroke-dasharray:1,2;" x1="383.0457" x2="386.0457" y1="55.1484" y2="55.1484"/></g><!--class Node2D--><g class="entity" data-qualified-name="Node2D" data-source-line="59" id="ent0015"><rect fill="#F1F1F1" height="48" rx="2.5" ry="2.5" style="stroke:#181818;stroke-width:0.5;" width="88.2256" x="40.96" y="21.29"/><ellipse cx="55.96" cy="37.29" fill="#ADD1B2" rx="11" ry="11" style="stroke:#181818;stroke-width:1;"/><path d="M58.9288,42.9306 Q58.3506,43.2275 57.71,43.3681 Q57.0694,43.5244 56.3663,43.5244 Q53.8663,43.5244 52.5381,41.8837 Q51.2256,40.2275 51.2256,37.1025 Q51.2256,33.9775 52.5381,32.3212 Q53.8663,30.665 56.3663,30.665 Q57.0694,30.665 57.71,30.8212 Q58.3663,30.9775 58.9288,31.2744 L58.9288,33.9931 Q58.3038,33.415 57.71,33.1494 Q57.1163,32.8681 56.4913,32.8681 Q55.1475,32.8681 54.46,33.9462 Q53.7725,35.0087 53.7725,37.1025 Q53.7725,39.1962 54.46,40.2744 Q55.1475,41.3369 56.4913,41.3369 Q57.1163,41.3369 57.71,41.0712 Q58.3038,40.79 58.9288,40.2119 L58.9288,42.9306 Z " fill="#000000"/><text fill="#000000" font-family="sans-serif" font-size="14" lengthAdjust="spacing" textLength="56.2256" x="69.96" y="42.1367">Node2D</text><line style="stroke:#181818;stroke-width:0.5;" x1="41.96" x2="128.1856" y1="53.29" y2="53.29"/><line style="stroke:#181818;stroke-width:0.5;" x1="41.96" x2="128.1856" y1="61.29" y2="61.29"/></g><!--reverse link Area2D to Portal--><g class="link" data-entity-1="ent0003" data-entity-2="ent0002" data-link-type="extension" data-source-line="10" id="lnk4"><path codeLine="10" d="M145.61,915.29 C183.29,915.29 221.84,915.29 268.01,915.29" fill="none" id="Area2D-backto-Portal" style="stroke:#181818;stroke-width:1;"/><polygon fill="none" points="127.61,915.29,145.61,921.29,145.61,909.29,127.61,915.29" style="stroke:#181818;stroke-width:1;"/></g><!--reverse link CharacterBody2D to Player--><g class="link" data-entity-1="ent0006" data-entity-2="ent0005" data-link-type="extension" data-source-line="29" id="lnk7"><path codeLine="29" d="M142.188,515.6643 C168.208,500.0643 188.05,488.18 222.71,467.41" fill="none" id="CharacterBody2D-backto-Player" style="stroke:#181818;stroke-width:1;"/><polygon fill="none" points="126.75,524.92,145.2732,520.8103,139.1028,510.5183,126.75,524.92" style="stroke:#181818;stroke-width:1;"/></g><!--reverse link Enemy to Snap_dragon--><g class="link" data-entity-1="ent0009" data-entity-2="ent0008" data-link-type="extension" data-source-line="46" id="lnk10"><path codeLine="46" d="M452.67,704.29 C483.74,704.29 500.7,704.29 531.46,704.29" fill="none" id="Enemy-backto-Snap_dragon" style="stroke:#181818;stroke-width:1;"/><polygon fill="none" points="434.67,704.29,452.67,710.29,452.67,698.29,434.67,704.29" style="stroke:#181818;stroke-width:1;"/></g><!--reverse link Node to Player_data--><g class="link" data-entity-1="ent0012" data-entity-2="ent0011" data-link-type="extension" data-source-line="53" id="lnk13"><path codeLine="53" d="M137.84,165.29 C178.9,165.29 231.09,165.29 282.49,165.29" fill="none" id="Node-backto-Player_data" style="stroke:#181818;stroke-width:1;"/><polygon fill="none" points="119.84,165.29,137.84,171.29,137.84,159.29,119.84,165.29" style="stroke:#181818;stroke-width:1;"/></g><!--reverse link Node2D to Main--><g class="link" data-entity-1="ent0015" data-entity-2="ent0014" data-link-type="extension" data-source-line="59" id="lnk16"><path codeLine="59" d="M147.65,45.29 C197.29,45.29 259.69,45.29 307.36,45.29" fill="none" id="Node2D-backto-Main" style="stroke:#181818;stroke-width:1;"/><polygon fill="none" points="129.65,45.29,147.65,51.29,147.65,39.29,129.65,45.29" style="stroke:#181818;stroke-width:1;"/></g><!--reverse link CharacterBody2D to Enemy--><g class="link" data-entity-1="ent0006" data-entity-2="ent0009" data-link-type="extension" data-source-line="76" id="lnk17"><path codeLine="76" d="M142.4948,582.8909 C178.0048,604.0409 215.12,626.13 259.9,652.79" fill="none" id="CharacterBody2D-backto-Enemy" style="stroke:#181818;stroke-width:1;"/><polygon fill="none" points="127.03,573.68,139.4245,588.0458,145.5651,577.736,127.03,573.68" style="stroke:#181818;stroke-width:1;"/></g><?plantuml-src xLJ1ZjCm4BtxAtnZ4TfggH0d3fIskrg9NIhAtPhOqyIAOqVsHDq2_NViE2b5QYkqvruIpxDdFE_vQTxmMKUk0T8IZDdn4Yrw85JymIb7_66nbbwtnES6Gk0B3QM7XXdS42V7lIuhuafxbAITPQ7MjeLuWijqVaRaTT4HFafdr_edyZl6-Xs-Sfx0y5-Cyyc4hxnhqPF64AC8lLCOI5j8HKKBL2KijB2DaTEMX8K6sPxDFC9qmJ_zlhqTAXxg6zYXFrk_WHSHMaIL0f0IJQATA0oR5OB9ryhEUunN_aKKD51Ydqa4iXRIEQFSrfw0XCAYsspIZaSjgorgGd6VT4lDv_QUa2gdnjx0wkRcRLfrhOfl8OQI4CyBSg9nNS1y8E_aDK6D8hUM0QNJOi_cLNmHIUY_EBKxgDNhCwgrjj0AvQ5qzgnasWeFDlDk-spXiIUcNlhlBbywU47KricwYEqb-128G57Do3wX1GICGDSBb_w2T8CdDVaVeakBpIxJEoBqhoDY8i5PZaSMIs5fN04cna7ttjYpPwVmMC2-t7Z34sXxmN6-ZeBd4kChf8mnEtT_oR2NF1bzDOXwBBLhHqMFJ3ic1uhcIi1wjLmkqc8sdo-_Bh_FVZn-UtxrAvoqMq-EiSzeLTUmw_oupe_h_BZEZrVFZ_UJwTtqu-H3WGJJFm00?></g></svg>